<svg width="79" height="22" viewBox="0 0 79 22" fill="none" xmlns="http://www.w3.org/2000/svg">
<path d="M79 2.64473L77.6175 1.16089H65.3117V1.81902L64.6347 1.12248H52.3306V1.78934L51.6854 1.12248H48.4071V1.40878L48.1178 1.12248H45.3795V0H42.0979V1.12248H39.383V2.47714L38.201 1.03345H34.9211V1.63572L34.6335 1.1958H31.8969V0.0733193H28.6136V1.19406L25.897 1.1958V2.1507L25.2534 1.13819H21.9734V3.97495L21.6859 3.51409L19.409 1.14169H15.2279L12.9493 3.51409V4.53881L12.3057 3.51409L10.0288 1.14169H2.28026L0 3.51409V8.46314L2.72494 11.3104H0.00167175V14.7372L1.22873 15.8335H4.51371V20.168L6.4312 21.4983H8.99232V15.8335H13.4208V12.8501L13.4291 12.8605L16.2226 15.8335H20.8634L21.9734 14.7162V20.1698L23.2439 21.5H26.3701V20.168L27.654 21.5H40.0249V19.7857L38.7109 17.766H40.4128L43.9736 21.5H50.9314L53.0712 19.1468V16.1459L50.7308 13.7578H53.0712V12.9234L53.862 13.7578H56.164L57.0015 10.7064L57.493 12.5289L58.3289 13.7578H59.9939V20.1523L61.4049 21.4983H66.0189V20.1226L67.3379 21.4983H79V18.9059L77.6793 17.5233H79V12.2984L77.915 11.2074H79V9.28362L77.7562 8.11225H79V5.69446L78.0855 4.80939H79V2.64473Z" fill="black" fill-opacity="0.5"/>
<path d="M24.7824 7.30116V1.62939H22.4453V19.6712H24.7824V9.74165H25.6283V7.30116H24.7824Z" fill="white"/>
<path d="M19.2111 1.63086H15.4246L13.4219 3.72046V12.1504L15.4246 14.2383H19.2111L21.2139 12.1504V3.72046L19.2111 1.63086ZM18.8785 11.5551V11.8013H15.7573V4.06785H18.8785V11.5551Z" fill="white"/>
<path d="M28.7029 17.2368V15.0215H26.3691V19.6755H37.7286V17.2368H28.7029Z" fill="white"/>
<path d="M31.4214 1.69182V0.569336H29.0877V1.69182H26.3711V3.1198H34.1631V1.69182H31.4214Z" fill="white"/>
<path d="M37.7286 7.19569V1.52393H35.3965V14.1366H37.7286V9.63618H38.6347V7.19569H37.7286Z" fill="white"/>
<path d="M28.3652 3.99414L26.3691 6.08549V12.1535L28.3702 14.2414H32.1601L34.1595 12.1535V6.08549L32.1601 3.99414H28.3652ZM31.8257 11.8026H28.7029V6.43462H31.8257V11.8026Z" fill="white"/>
<path d="M60.4693 1.61084V5.40075H59.4395V7.83774H60.4693V19.6526H61.9253V1.61084H60.4693Z" fill="white"/>
<path d="M64.1609 1.61084H62.7031V19.6526H64.1609V1.61084Z" fill="white"/>
<path d="M57.2723 3.04154H59.571V1.61182H52.8021V3.04154H54.9419L52.5195 12.0301H54.3635L56.1071 5.56233L57.8524 12.0301H59.6963L57.2723 3.04154Z" fill="white"/>
<path d="M48.8781 1.62061V3.92143H48.3281V6.36366H48.8781V7.92606H48.3281V10.3648H48.8781V12.0319H51.2136V1.62061H48.8781Z" fill="white"/>
<path d="M44.9055 1.61432V0.49707H42.5718V1.61432H39.8535V3.04404H47.6472V1.61432H44.9055Z" fill="white"/>
<path d="M49.2151 12.998H42.8858L40.8848 15.0876V17.5665L42.8892 19.6561H49.2134L51.2145 17.5665V15.0876L49.2151 12.998ZM48.8774 17.2174H43.2185V15.435H48.8774V17.2174Z" fill="white"/>
<path d="M45.6444 3.92139H41.8546L39.8535 6.01273V9.99816L41.8546 12.0878H45.6444L47.6472 9.99816V6.01273L45.6444 3.92139ZM45.3084 9.65076H42.1889V6.60627V6.35838H45.3084V9.65076Z" fill="white"/>
<path d="M77.141 8.05273H65.7832V9.48071H77.141V8.05273Z" fill="white"/>
<path d="M68.117 3.08333H77.1444V1.65186H65.7832V6.38444H77.1444V4.46243H68.117V3.08333Z" fill="white"/>
<path d="M74.8106 14.3702H65.7832V19.5985H77.1444V17.6748H68.117V15.8016H77.1444V11.0708H65.7832V12.9911H74.8106V14.3702Z" fill="white"/>
<path d="M0.472656 11.8042V14.2412H4.9847V19.6738H4.99306H7.31845V14.2412H11.8322V11.8042H0.472656Z" fill="white"/>
<path d="M9.83109 1.63281H2.47374L0.472656 3.72241V8.25948L2.47374 10.3508H9.83109L11.8322 8.26122V3.72241L9.83109 1.63281ZM9.49841 7.90859H2.80809V4.06806H9.49841V7.90859Z" fill="white"/>
</svg>
