<svg width="316" height="105" viewBox="0 0 316 105" fill="none" xmlns="http://www.w3.org/2000/svg">
<path d="M0 4.16084V18.1119H23.8159C21.6062 23.8636 15.7136 34.1434 1.47315 40.7517V55.0699C5.5243 53.7238 9.32992 51.8881 12.89 49.8077C19.1509 46.2587 26.1483 40.9965 30.1995 33.2867C32.6547 36.5909 35.2327 39.7727 38.0562 42.5874C42.844 47.4825 49.3504 52.9895 56.5933 55.0699V40.1399C53.5243 38.3042 50.7007 36.2238 48 33.8986C43.4578 29.9825 38.3018 24.4755 35.9693 18.1119H57.9437V4.16084H0ZM81.8824 21.6608V0H66.2916V55.1923H81.8824V36.1014H96V21.6608H81.8824ZM83.601 105V93.4965H25.4118V88.2343H82.6189V61.8007H9.82097V71.7133H65.555V77.3427H9.82097V105H83.601Z" fill="black"/>
<path d="M119 56.2822H171.211V5.7631H119V56.2822ZM133.53 41.8131V20.1095H156.68V41.8131H133.53ZM193.868 22.9298H175.89V37.1536H193.868V59.838H209.262V0H193.868V22.9298ZM135.624 79.825H193.253C193.253 82.1548 193.13 84.6071 192.761 87.1821C192.145 91.5964 190.79 97.4821 187.958 103H204.582C205.444 100.916 206.306 98.5857 207.168 96.0107C208.522 91.719 209.754 86.0785 209.877 79.825H210V65.969H135.624V79.825Z" fill="black"/>
<path d="M230.083 8V22.6087H287.402C288.384 31.3739 287.157 51.2174 278.933 71.913H295.257C299.553 63.3913 304.953 44.2783 304.953 22.4869V8H230.083ZM316 77.7565H272.55V49.7565H256.226V77.7565H221V92H316V77.7565Z" fill="black"/>
</svg>
