<svg width="416" height="105" viewBox="0 0 416 105" fill="none" xmlns="http://www.w3.org/2000/svg">
<path d="M8.93991 103.042L8.57252 103.164H82.5411V91.7832H24.4929V86.6434H82.5411V59.3531H8.93991V69.2657H65.641V75.2622H8.93991V103.042ZM36.372 1.34615H18.8595C8.93991 1.34615 0 8.68881 0 17.8671V34.3881C0 43.5664 8.93991 50.9091 18.8595 50.9091H36.372C46.2916 50.9091 54.4967 43.5664 54.4967 34.3881V17.8671C54.4967 8.68881 46.2916 1.34615 36.372 1.34615ZM82.1737 0H65.7634V54.2133H82.1737V0ZM38.5763 31.0839C38.5763 35.1224 35.0249 38.0594 30.4937 38.0594H24.6154C19.8393 38.0594 16.0429 35.1224 16.0429 31.0839V21.1713C16.0429 17.1329 19.8393 14.0734 24.6154 14.0734H30.4937C35.0249 14.0734 38.5763 17.1329 38.5763 21.1713V31.0839Z" fill="black"/>
<path d="M122 4.16084V18.1119H145.759C143.554 23.8636 137.676 34.1434 123.47 40.7517V55.0699C127.511 53.7238 131.308 51.8881 134.859 49.8077C141.105 46.2587 148.085 40.9965 152.127 33.2867C154.576 36.5909 157.148 39.7727 159.964 42.5874C164.741 47.4825 171.231 52.9895 178.457 55.0699V40.1399C175.395 38.3042 172.578 36.2238 169.884 33.8986C165.353 29.9825 160.209 24.4755 157.883 18.1119H179.804V4.16084H122ZM203.684 21.6608V0H188.131V55.1923H203.684V36.1014H217.768V21.6608H203.684ZM205.399 105V93.4965H147.351V88.2343H204.419V61.8007H131.798V71.7133H187.397V77.3427H131.798V105H205.399Z" fill="black"/>
<path d="M261.571 11.9958V3.28039H244.004V11.9958H223.944V25.069H234.659C230.298 28.0571 227.183 32.5393 227.183 38.5156V57.6895C227.183 67.899 235.905 75.9919 244.876 75.9919H260.201C270.418 75.9919 278.142 67.0275 278.142 56.6935V38.5156C278.142 32.5393 275.277 28.0571 271.414 25.069H283.126V11.9958H261.571ZM307.173 0.54126H290.851V104.006H307.173V50.2192H322.249V34.1579H307.173V0.54126ZM263.066 55.0749C263.066 59.4326 260.201 61.7982 255.84 61.7982H250.109C245.748 61.7982 241.761 59.1836 241.761 54.8259V41.5037C241.761 37.0215 245.748 33.4109 250.109 33.4109H255.84C260.201 33.4109 263.066 37.0215 263.066 41.5037V55.0749Z" fill="black"/>
<path d="M330.275 6.90747V21.5928H387.466C388.445 30.404 387.221 50.3515 379.016 71.1557H395.303C399.59 62.5893 404.978 43.376 404.978 21.4704V6.90747H330.275ZM416 77.0299H372.648V48.883H356.36V77.0299H321.212V91.348H416V77.0299Z" fill="black"/>
</svg>
