<svg width="547" height="105" viewBox="0 0 547 105" fill="none" xmlns="http://www.w3.org/2000/svg">
<path d="M10.6778 103.042H81.986V65.9615H10.6778V103.042ZM36.5746 0.122377H19.7601V7.0979H0V18.3566H8.59134C5.76847 21.2937 4.0502 25.3322 4.0502 29.6154V42.3427C4.0502 51.521 11.7824 58.7413 20.4965 58.7413H35.7154C44.4295 58.7413 52.039 51.3986 52.039 41.1189V29.6154C52.039 25.3322 50.3207 21.2937 47.4978 18.3566H56.3347V7.0979H36.5746V0.122377ZM81.7405 22.1503V0H67.1352V59.2308H81.7405V36.5909H95.6094V22.1503H81.7405ZM23.4421 90.1923V78.6888H68.608V90.1923H23.4421ZM37.8019 39.4056C37.8019 43.4441 35.3472 46.3811 31.297 46.3811H24.424C20.4965 46.3811 18.1646 43.4441 18.1646 39.4056V32.7972C18.1646 28.8811 21.7238 25.9441 25.6513 25.9441H30.8061C34.8563 25.9441 37.8019 28.8811 37.8019 32.7972V39.4056Z" fill="black"/>
<path d="M155.09 35.3671C155.949 31.0839 156.317 26.6783 156.317 21.7832V8.56643H101.701V21.4161H115.324C114.343 42.5874 108.942 51.0315 101.701 59.2308V76.486C106.856 73.4266 111.52 69.3881 115.57 64.3706C122.443 55.4371 129.807 41.9755 130.789 21.4161H140.239C139.257 39.6503 137.294 52.6224 124.407 65.472V80.8916C132.998 76.486 148.708 62.7797 154.231 39.7727V52.7448H164.418V103.042H178.778V0H164.418V35.3671H155.09ZM184.792 103.042H199.274V0H184.792V103.042Z" fill="black"/>
<path d="M229.972 4.16084V18.1119H253.782C251.573 23.8636 245.682 34.1434 231.445 40.7517V55.0699C235.495 53.7238 239.3 51.8881 242.859 49.8077C249.118 46.2587 256.114 40.9965 260.164 33.2867C262.619 36.5909 265.196 39.7727 268.019 42.5874C272.806 47.4825 279.311 52.9895 286.552 55.0699V40.1399C283.484 38.3042 280.661 36.2238 277.961 33.8986C273.419 29.9825 268.265 24.4755 265.933 18.1119H287.902V4.16084H229.972ZM311.835 21.6608V0H296.248V55.1923H311.835V36.1014H325.949V21.6608H311.835ZM313.553 105V93.4965H255.378V88.2343H312.571V61.8007H239.79V71.7133H295.511V77.3427H239.79V105H313.553Z" fill="black"/>
<path d="M357.448 104.143L357.079 104.266H429.001V93.2518H372.544V89.2134H429.001V63.1469H357.448V72.8148H412.432V78.1994H357.448V104.143ZM369.598 6.24138C367.634 11.7484 365.303 17.2553 362.603 22.8847C357.816 32.5525 351.188 44.6679 342.229 54.5805H362.603C369.598 45.7693 374.14 37.6924 377.944 29.4931C379.54 32.7973 381.258 35.9791 382.854 39.0386C385.676 44.3008 389.112 50.6644 392.059 54.5805H409.978C403.35 44.4232 390.218 23.7414 386.29 6.36375L369.598 6.24138ZM443.361 24.1085H429.37V0.244873H414.028V59.2309H429.37V39.5281H443.361V24.1085Z" fill="black"/>
<path d="M505.025 24.4756V10.7693H449.55V24.4756H468.573C469.064 31.8183 469.923 59.9651 449.672 66.8183V81.0141C453.723 80.2798 457.65 78.9337 461.209 77.098C467.469 73.7938 474.219 68.4092 477.287 58.619C480.233 67.5525 487.106 73.4267 493.243 76.6085C496.802 78.5665 500.729 80.0351 504.78 81.0141V66.8183C484.529 59.9651 484.897 31.8183 485.388 24.4756H505.025ZM531.658 0.244873H514.598V104.266H531.658V51.3987H547V35.612H531.658V0.244873Z" fill="black"/>
</svg>
